<svg xmlns="http://www.w3.org/2000/svg" xmlns:xlink="http://www.w3.org/1999/xlink" width="42.301" height="49.386" viewBox="0 0 42.301 49.386"><defs><linearGradient id="a" x1="-0.129" y1="-0.164" x2="1.511" y2="1.18" gradientUnits="objectBoundingBox"><stop offset="0" stop-color="#9cf4ed"/><stop offset="1" stop-color="#8686f7"/></linearGradient></defs><g transform="translate(0)"><path d="M32.155,48.417a6.681,6.681,0,0,1,6.654-11.584,4.338,4.338,0,0,0-.743-4.683,3.936,3.936,0,0,0-5.632.02l-11.11,9.893a10.072,10.072,0,0,1-7.169,3.26,9.627,9.627,0,0,1-6.88-3.115c-2.227-2.26-3.218-8.387-3.156-11.224l-.01-.01a14.088,14.088,0,0,1,0-19.888L13.7,1.493a5.112,5.112,0,0,1,7.221,0l.062.062a3.1,3.1,0,1,1-1.228,1.681l-.289-.289a3.124,3.124,0,0,0-4.3,0L5.573,12.541A11.917,11.917,0,0,0,2.54,17.678a1.057,1.057,0,0,1,.279.2l13.42,14.431a.976.976,0,0,1,.227.464,11.867,11.867,0,0,0,6.076-3.27l9.593-9.593a3.044,3.044,0,0,0,0-4.3l-.288-.289a2.885,2.885,0,0,1-.887.145A3.1,3.1,0,0,1,28.5,10.478a3.1,3.1,0,0,1,5.034,3.611l.062.061a5.112,5.112,0,0,1,0,7.221l-9.593,9.594A14.06,14.06,0,0,1,6.264,32.729c.248,2.888,1.186,6.705,2.486,8.025a7.612,7.612,0,0,0,5.405,2.5A8.1,8.1,0,0,0,19.9,40.558L31,30.665A5.967,5.967,0,0,1,35.25,28.9h.031a6,6,0,0,1,4.261,1.775,6.453,6.453,0,0,1,.939,7.406v.01h-.021a6.684,6.684,0,0,1-8.3,10.326Zm.227-8.923a4.639,4.639,0,0,0,6.561,6.561l.041-.041a4.639,4.639,0,0,0-6.6-6.52ZM2.076,21.072A11.974,11.974,0,0,0,14.052,33.027h.011L2.118,20.154C2.1,20.453,2.076,20.762,2.076,21.072Zm28.14-9.387a1.028,1.028,0,1,0,.727-.3A1.027,1.027,0,0,0,30.217,11.685ZM21.974,3.433a1.028,1.028,0,0,0,1.454,1.454A1.029,1.029,0,0,0,22.7,3.133,1,1,0,0,0,21.974,3.433Z" transform="translate(0 0)" fill="url(#a)"/></g></svg>