<svg xmlns="http://www.w3.org/2000/svg" xmlns:xlink="http://www.w3.org/1999/xlink" width="50.578" height="44.24" viewBox="0 0 50.578 44.24"><defs><linearGradient id="a" x1="1.12" y1="1.21" x2="-0.258" y2="-0.354" gradientUnits="objectBoundingBox"><stop offset="0" stop-color="#84f1fd"/><stop offset="1" stop-color="#64acfa"/></linearGradient></defs><g transform="translate(0 0)"><path d="M24.312,43.555c-1.58-4.279-5.986-7.514-10.643-10.95C7.282,27.894.674,23.026.041,14.711A13.763,13.763,0,0,1,10.38.42c4.574-1.2,11.013-.074,14.965,6.619C29.655.315,35.935-.824,40.6.473a13.692,13.692,0,0,1,9.948,14.206c-.474,8.241-7.187,13.215-13.668,18.032-4.648,3.456-9.031,6.712-10.6,10.844a1.062,1.062,0,0,1-.991.685A1.038,1.038,0,0,1,24.312,43.555Zm-13.4-41.1A11.524,11.524,0,0,0,2.149,14.542C2.708,21.9,8.915,26.472,14.922,30.9c4.194,3.087,8.188,6.038,10.391,9.853,2.192-3.7,6.155-6.639,10.318-9.727,6.1-4.531,12.4-9.211,12.825-16.461a11.62,11.62,0,0,0-8.42-12.056c-4.246-1.17-10.1.105-13.805,7.2a1.075,1.075,0,0,1-.958.569,1.042,1.042,0,0,1-.928-.611C21.751,4.066,17.536,2.1,13.731,2.1A11.168,11.168,0,0,0,10.907,2.454Z" transform="translate(0 0)" fill="url(#a)"/></g></svg>