<svg xmlns="http://www.w3.org/2000/svg" xmlns:xlink="http://www.w3.org/1999/xlink" width="48.205" height="48.203" viewBox="0 0 48.205 48.203"><defs><clipPath id="a"><rect width="48.205" height="48.203" fill="none"/></clipPath><linearGradient id="b" x2="1.276" y2="1.286" gradientUnits="objectBoundingBox"><stop offset="0" stop-color="#e98995"/><stop offset="1" stop-color="#b4b5e7"/></linearGradient></defs><g transform="translate(0.001 0)"><g transform="translate(-0.001 0)" clip-path="url(#a)"><g transform="translate(0.001 0)"><path d="M3.937,44.257A13.726,13.726,0,0,1,.02,33.682a16.6,16.6,0,0,1,4.941-10.9L22.786,4.96A16.6,16.6,0,0,1,33.682.019,13.783,13.783,0,0,1,44.257,3.946c5.634,5.634,5.182,15.265-1.014,21.461L25.408,43.242A16.6,16.6,0,0,1,13.739,48.2,13.735,13.735,0,0,1,3.937,44.257ZM6.377,24.2a14.675,14.675,0,0,0-4.349,9.581,11.748,11.748,0,0,0,3.334,9.058c4.851,4.85,13.207,4.4,18.629-1.014L32.7,33.109,15.084,15.494ZM33.783,2.028A14.636,14.636,0,0,0,24.2,6.376l-7.7,7.7L34.115,31.694l7.7-7.7c5.423-5.413,5.875-13.778,1.025-18.618a11.628,11.628,0,0,0-8.366-3.354C34.245,2.018,34.014,2.018,33.783,2.028Z" transform="translate(0)" fill="url(#b)"/></g></g></g></svg>