<svg xmlns="http://www.w3.org/2000/svg" xmlns:xlink="http://www.w3.org/1999/xlink" width="49.386" height="49.385" viewBox="0 0 49.386 49.385"><defs><linearGradient id="a" x1="-0.129" y1="-0.164" x2="1.511" y2="1.18" gradientUnits="objectBoundingBox"><stop offset="0" stop-color="#81f3be"/><stop offset="1" stop-color="#97c4e5"/></linearGradient></defs><g transform="translate(0 0)"><path d="M.308,49.06a1.059,1.059,0,0,1,.022-1.514l6.882-6.883L5.73,35a3.529,3.529,0,0,0-.119-.43,2.31,2.31,0,0,1,.4-2.588l21.369-21.38L25.026,8.257A1.071,1.071,0,0,1,26.54,6.742l16.1,16.118a1.071,1.071,0,0,1-1.515,1.514l-2.341-2.341L17.413,43.412a1.951,1.951,0,0,1-1.428.6,3.8,3.8,0,0,1-1.1-.193c-.14-.032-.3-.086-.462-.118L8.694,42.22,1.843,49.06l-.022.022a1.032,1.032,0,0,1-.736.3A1.1,1.1,0,0,1,.308,49.06ZM7.523,33.512c.011.022.086.279.139.472.043.15.1.311.14.494l1.45,5.477a.438.438,0,0,1,.118.075.956.956,0,0,1,.108.172l5.455,1.407a5.361,5.361,0,0,1,.547.139c.172.054.451.108.494.118L37.235,20.519l-8.375-8.375-1.707,1.707,2.577,2.577a1.071,1.071,0,0,1-1.514,1.514l-2.578-2.577-2.244,2.244,2.04,2.04a1.071,1.071,0,0,1-1.514,1.515l-2.04-2.04L19.5,21.517a1.089,1.089,0,0,1,.58.28L23.3,25.018a1.071,1.071,0,0,1-1.515,1.514l-3.221-3.221a1.091,1.091,0,0,1-.279-.58L15.212,25.8a1.055,1.055,0,0,1,.58.279l2.147,2.147a1.071,1.071,0,0,1-1.514,1.514l-2.147-2.147a1.089,1.089,0,0,1-.28-.58l-2.921,2.931L14.729,33.6a1.071,1.071,0,0,1-1.514,1.514L9.563,31.46ZM37.89,15.773a1.059,1.059,0,0,1,.022-1.514l5.68-5.681L40.811,5.8l-5.68,5.681-.022.022a1.071,1.071,0,0,1-1.493-1.535L39.3,4.283l-2.459-2.47A1.071,1.071,0,0,1,38.352.3L49.09,11.038a1.074,1.074,0,0,1-1.525,1.514l-2.459-2.459-5.681,5.68-.022.022a1.059,1.059,0,0,1-1.514-.022Z" transform="translate(0 0)" fill="url(#a)"/></g></svg>