<svg xmlns="http://www.w3.org/2000/svg" xmlns:xlink="http://www.w3.org/1999/xlink" width="52.715" height="54.38" viewBox="0 0 52.715 54.38"><defs><linearGradient id="a" x1="-0.129" y1="-0.164" x2="1.511" y2="1.18" gradientUnits="objectBoundingBox"><stop offset="0" stop-color="#ccc"/><stop offset="1" stop-color="#ef7777"/></linearGradient></defs><g transform="translate(0 0)"><path d="M47.783,53.964a2.891,2.891,0,0,0-4.762,0,.965.965,0,0,1-1.587,0,2.891,2.891,0,0,0-4.762,0,.964.964,0,0,1-1.586,0,2.891,2.891,0,0,0-4.762,0,.965.965,0,0,1-1.587,0,2.891,2.891,0,0,0-4.762,0,.965.965,0,0,1-1.587,0,2.891,2.891,0,0,0-4.762,0,.964.964,0,0,1-1.586,0,2.891,2.891,0,0,0-4.762,0,.965.965,0,0,1-1.587,0,2.89,2.89,0,0,0-4.761,0,.965.965,0,0,1-1.587,0A2.9,2.9,0,0,0,.964,52.713a.964.964,0,0,1,0-1.929,4.822,4.822,0,0,1,3.174,1.193,4.831,4.831,0,0,1,1.969-1.039V20.25a20.25,20.25,0,1,1,40.5,0V50.939a4.828,4.828,0,0,1,1.968,1.039,4.822,4.822,0,0,1,3.174-1.193.964.964,0,1,1,0,1.929,2.9,2.9,0,0,0-2.381,1.251.964.964,0,0,1-1.586,0ZM41.464,37.928V51.433a4.806,4.806,0,0,1,.763.545,4.827,4.827,0,0,1,2.451-1.138V20.25a18.321,18.321,0,1,0-36.642,0V50.84a4.83,4.83,0,0,1,2.451,1.138,4.766,4.766,0,0,1,.763-.545V20.25a14.964,14.964,0,0,1,3.073-9.122.964.964,0,1,1,1.535,1.166,13.049,13.049,0,0,0-2.68,7.956V50.81a4.769,4.769,0,0,1,.482-.025,4.824,4.824,0,0,1,3.174,1.193,4.817,4.817,0,0,1,6.348,0,4.818,4.818,0,0,1,6.349,0,4.817,4.817,0,0,1,6.348,0,4.824,4.824,0,0,1,3.174-1.193,4.769,4.769,0,0,1,.482.025V37.928a.964.964,0,0,1,1.929,0Zm-7.715,8.035a.964.964,0,1,1,.964.965A.964.964,0,0,1,33.749,45.963Zm-16.714,0a.964.964,0,1,1,.964.965A.964.964,0,0,1,17.035,45.963Zm12.857-3.857a.964.964,0,1,1,.964.965A.964.964,0,0,1,29.893,42.106Zm9.642-8.035V20.249A13.192,13.192,0,0,0,26.357,7.071,13.045,13.045,0,0,0,18.4,9.752a.964.964,0,0,1-1.166-1.536,14.964,14.964,0,0,1,9.122-3.073A15.124,15.124,0,0,1,41.463,20.249V34.07a.964.964,0,1,1-1.929,0ZM20.57,26.357a.964.964,0,0,1,0-1.929H32.142a.964.964,0,1,1,0,1.929Zm0-5.143a.964.964,0,0,1,0-1.929H32.142a.964.964,0,1,1,0,1.929Z" transform="translate(0)" fill="url(#a)"/></g></svg>