<svg xmlns="http://www.w3.org/2000/svg" xmlns:xlink="http://www.w3.org/1999/xlink" width="50.909" height="50.916" viewBox="0 0 50.909 50.916"><defs><linearGradient id="a" x1="-0.097" y1="-0.098" x2="1" y2="1" gradientUnits="objectBoundingBox"><stop offset="0" stop-color="#b5b4e9"/><stop offset="1" stop-color="#f581f5"/></linearGradient></defs><path d="M13.318,47.845A16.219,16.219,0,0,1,4.16,50.851a11.244,11.244,0,0,1-1.847-.139A2.221,2.221,0,0,1,.455,48.843a2.2,2.2,0,0,1,1.213-2.33c1.589-.773,2.975-2.394,4.155-4.831a25.443,25.443,0,1,1,7.494,6.163Zm.548-2.652A22.925,22.925,0,1,0,8.3,40.6a1.289,1.289,0,0,1,.215,1.374,13.93,13.93,0,0,1-4.747,6.281c.13.011.258.011.387.011a13.683,13.683,0,0,0,8.1-2.835,1.287,1.287,0,0,1,1.611-.236Zm10.3-8.01V34.649H20.77a1.289,1.289,0,1,1,0-2.578h6.485a2.673,2.673,0,0,0,0-5.347H23.648a5.251,5.251,0,1,1,0-10.5h.516v-2.49a1.288,1.288,0,1,1,2.577,0v2.49h3.275a1.289,1.289,0,0,1,0,2.578H23.648a2.673,2.673,0,0,0,0,5.347h3.608a5.251,5.251,0,0,1,.064,10.5h-.58v2.534a1.288,1.288,0,1,1-2.577,0Z" transform="translate(0 0)" fill="url(#a)"/></svg>