<svg xmlns="http://www.w3.org/2000/svg" xmlns:xlink="http://www.w3.org/1999/xlink" width="53.266" height="53.271" viewBox="0 0 53.266 53.271"><defs><linearGradient id="a" x1="-0.044" x2="1.511" y2="1.18" gradientUnits="objectBoundingBox"><stop offset="0" stop-color="#f8c292"/><stop offset="1" stop-color="#da88db"/></linearGradient></defs><path d="M17.568,52.871a6.412,6.412,0,0,1-3.629-3.5,8.256,8.256,0,0,1,.011-6.359A8.364,8.364,0,0,1,20.2,37.834l1.72-6.481-6.481,1.72a8.3,8.3,0,0,1-5.182,6.237,8.629,8.629,0,0,1-3.263.644,7.807,7.807,0,0,1-3.1-.644A6.439,6.439,0,0,1,.4,35.681c-1.354-3.618.832-7.879,4.882-9.51a8.248,8.248,0,0,1,6.359-.011,6.458,6.458,0,0,1,3.5,3.617,7.274,7.274,0,0,1,.266,1l7.169-1.9L30,.824a1.108,1.108,0,0,1,2.142.566l-7.1,26.834,26.833-7.1a1.113,1.113,0,0,1,1.354.788,1.126,1.126,0,0,1-.8,1.376L24.37,30.71l-1.9,7.168a5.256,5.256,0,0,1,.987.266,6.39,6.39,0,0,1,3.629,3.485,8.489,8.489,0,0,1-7.3,11.641A6.325,6.325,0,0,1,17.568,52.871Zm-1.554-9.056a6.011,6.011,0,0,0-.033,4.639,4.189,4.189,0,0,0,2.375,2.308c2.5.932,5.494-.688,6.681-3.629a6,6,0,0,0,.033-4.639A4.147,4.147,0,0,0,21.23,39.92,5.932,5.932,0,0,0,16.014,43.816ZM6.1,28.224c-2.93,1.187-4.561,4.184-3.629,6.681A4.261,4.261,0,0,0,4.784,37.28a6.009,6.009,0,0,0,4.639-.033c2.93-1.2,4.561-4.195,3.629-6.681a4.219,4.219,0,0,0-2.309-2.375,5.482,5.482,0,0,0-2.21-.45A6.5,6.5,0,0,0,6.1,28.224Z" transform="translate(0.001 0)" fill="url(#a)"/></svg>