<svg xmlns="http://www.w3.org/2000/svg" xmlns:xlink="http://www.w3.org/1999/xlink" width="50.609" height="52.865" viewBox="0 0 50.609 52.865"><defs><linearGradient id="a" x1="-0.129" y1="-0.164" x2="1.511" y2="1.18" gradientUnits="objectBoundingBox"><stop offset="0" stop-color="#a9f7ac"/><stop offset="1" stop-color="#f2c152"/></linearGradient></defs><path d="M27.3,52.475a1.1,1.1,0,0,1,.134-1.543c1.413-1.277,1.813-2.2,1.568-3.693a8.953,8.953,0,0,0-.306-1.056,5.437,5.437,0,0,1-.368-3.273c.592-2,2.772-3,4.678-3.116A4.4,4.4,0,0,0,35.412,39a1.612,1.612,0,0,1-.054-.223.3.3,0,0,1-.068-.065,7.5,7.5,0,0,1-1.879-5.532,9.221,9.221,0,0,1,3.236-6.292c3.705-3.2,9.126-3.123,12.084.17a7.345,7.345,0,0,1,1.855,5.526,9.173,9.173,0,0,1-3.226,6.29A9.573,9.573,0,0,1,42.9,41.059a8.453,8.453,0,0,1-5.692-.834c-1.047,1.552-3.975,1.743-4.1,1.756-.925.057-2.4.52-2.707,1.562a3.827,3.827,0,0,0,.346,1.951,9.049,9.049,0,0,1,.394,1.4,5.736,5.736,0,0,1-2.263,5.679.231.231,0,0,1-.048.042,1.071,1.071,0,0,1-.49.237,1.093,1.093,0,0,1-.207.02A1.108,1.108,0,0,1,27.3,52.475ZM41.532,26.843a7.522,7.522,0,0,0-3.46,1.7A6.976,6.976,0,0,0,35.6,33.314a5.314,5.314,0,0,0,1.322,3.935c2.177,2.419,6.231,2.4,9.038-.019a6.965,6.965,0,0,0,2.472-4.772,5.316,5.316,0,0,0-1.322-3.935,5.665,5.665,0,0,0-4.267-1.808A6.871,6.871,0,0,0,41.532,26.843ZM.267,46.826a1.084,1.084,0,0,1,.114-1.538C3.04,42.909,3.806,41.054,3.341,38.2a13.021,13.021,0,0,0-.559-1.954c-.545-1.6-1.152-3.41-.635-5.161C3.063,28,6.505,26.439,9.5,26.268c1.631-.094,4.245-.814,4.8-1.747a.677.677,0,0,0-.009-.678c-.086-.1-.167-.168-.252-.264C9.214,18.064,10.175,9.239,16.184,3.912A15.167,15.167,0,0,1,27.1.029a12.528,12.528,0,0,1,8.756,4.217c4.829,5.516,3.869,14.341-2.14,19.669a15.621,15.621,0,0,1-7.32,3.64,13.692,13.692,0,0,1-3.6.243,12.634,12.634,0,0,1-6.563-2.281.588.588,0,0,1-.048.1c-1.467,2.493-6.52,2.817-6.563,2.825-2.171.132-4.774,1.2-5.387,3.255-.327,1.077.147,2.479.6,3.839a15.121,15.121,0,0,1,.649,2.3c.74,4.438-1.319,6.979-3.656,9.071-.008.013-.019.014-.027.028a1.058,1.058,0,0,1-.5.248,1.093,1.093,0,0,1-1.037-.362ZM23.908,2.411a13.47,13.47,0,0,0-6.269,3.136c-5.117,4.528-5.988,11.977-1.946,16.6a10.414,10.414,0,0,0,7.252,3.474,12.97,12.97,0,0,0,9.317-3.339C37.38,17.752,38.25,10.3,34.21,5.693a10.39,10.39,0,0,0-7.254-3.485q-.353-.019-.7-.019A12.266,12.266,0,0,0,23.908,2.411Z" transform="translate(0 -0.001)" fill="url(#a)"/></svg>