<svg xmlns="http://www.w3.org/2000/svg" xmlns:xlink="http://www.w3.org/1999/xlink" width="53.749" height="66.54" viewBox="0 0 53.749 66.54"><defs><linearGradient id="a" x2="1.319" y2="1.176" gradientUnits="objectBoundingBox"><stop offset="0" stop-color="#e4ffb1"/><stop offset="1" stop-color="#ff7869"/></linearGradient></defs><g transform="translate(0.264 0.253)"><path d="M30.623,66.02a6.673,6.673,0,0,1-2.485-.66,6.124,6.124,0,0,1-.811-.473l-.1-.078-.553-.679c-3.226-3.44-1.121-6.076.734-8.4.445-.556.9-1.13,1.282-1.7,2.216-3.683,1.421-6.814.584-10.129-.686-2.7-1.39-5.486-.374-8.587A5.242,5.242,0,0,1,31.842,31.9c2.853-1.209,6.76.149,9.536,1.5a26.728,26.728,0,0,1,4.141,2.477c4.6,3.8,4.359,10.612-.71,20.237-2.184,4.038-8.2,9.918-13.668,9.919C30.967,66.037,30.8,66.032,30.623,66.02Zm1.6-33.214a4.312,4.312,0,0,0-2.386,2.813c-.925,2.831-.288,5.358.392,8.035.855,3.366,1.736,6.845-.707,10.9-.41.619-.875,1.206-1.325,1.768-1.933,2.422-3.447,4.315-.783,7.157l.517.633a6.094,6.094,0,0,0,.635.363c5.425,2.646,13-4.436,15.363-8.821,4.826-9.151,5.153-15.548.971-19a25.572,25.572,0,0,0-3.961-2.364,17.683,17.683,0,0,0-6.023-1.849q-.289-.02-.573-.021A5.431,5.431,0,0,0,32.226,32.806Zm18.463,6.726a1.6,1.6,0,0,1-.59-.156,1.51,1.51,0,0,1-.311-.2,1.627,1.627,0,0,1-.529-1.393,2.566,2.566,0,0,1,.634-1.464,2.19,2.19,0,0,1,2.5-.74,1.377,1.377,0,0,1,.305.2,1.617,1.617,0,0,1,.528,1.393,2.546,2.546,0,0,1-.634,1.464,2.423,2.423,0,0,1-1.783.9Q50.75,39.536,50.689,39.532Zm-.049-2.575a1.573,1.573,0,0,0-.4.9.661.661,0,0,0,.188.571.548.548,0,0,0,.1.063,1.247,1.247,0,0,0,1.322-.493,1.593,1.593,0,0,0,.4-.9.664.664,0,0,0-.188-.571.365.365,0,0,0-.1-.065.6.6,0,0,0-.223-.057l-.054,0A1.49,1.49,0,0,0,50.64,36.957ZM6.469,39.139,5.505,39.1a6.485,6.485,0,0,1-.87-.35C-1.43,35.789-.53,24.925,1.653,19.928,6.118,10,11.329,5.617,17.146,6.9a26.621,26.621,0,0,1,4.52,1.743C24.44,10,27.917,12.235,28.72,15.23a5.243,5.243,0,0,1-.881,4.415c-1.818,2.713-4.452,3.87-7,4.992-3.129,1.38-6.086,2.68-7.63,6.717-.209.631-.376,1.343-.543,2.032-.65,2.728-1.379,5.791-5.4,5.791C7.016,39.177,6.75,39.164,6.469,39.139ZM2.556,20.33C.563,24.89-.358,35.215,5.067,37.865a5.365,5.365,0,0,0,.677.273l.781.017c3.912.354,4.474-2,5.183-4.991l.011-.032c.165-.7.34-1.427.565-2.112,1.7-4.441,4.986-5.885,8.163-7.286,2.529-1.113,4.916-2.165,6.575-4.636a4.309,4.309,0,0,0,.747-3.613c-.743-2.771-4.412-4.923-6.534-5.957a25.562,25.562,0,0,0-4.319-1.668,8.034,8.034,0,0,0-1.178-.172c-.177-.012-.354-.019-.53-.019C10.589,7.668,6.337,11.917,2.556,20.33ZM48.32,36.02a1.848,1.848,0,0,1-.686-.18,1.725,1.725,0,0,1-.367-.241,1.856,1.856,0,0,1-.63-1.3,3.012,3.012,0,0,1,.778-2.145,2.681,2.681,0,0,1,3.033-.9,1.593,1.593,0,0,1,.347.229,1.929,1.929,0,0,1,.629,1.658,3.164,3.164,0,0,1-.772,1.79,2.991,2.991,0,0,1-2.184,1.094Q48.394,36.025,48.32,36.02ZM48.161,32.8a2.055,2.055,0,0,0-.541,1.427.91.91,0,0,0,.286.629c.465.4,1.406.122,1.994-.564a2.179,2.179,0,0,0,.542-1.217.976.976,0,0,0-.286-.84A.763.763,0,0,0,50,32.125a.9.9,0,0,0-.334-.085l-.077,0A2.016,2.016,0,0,0,48.161,32.8Zm-3.27.319a1.72,1.72,0,0,1-.64-.17l-.088-.046a1.935,1.935,0,0,1-.935-1.507,3.2,3.2,0,0,1,.42-1.91,2.512,2.512,0,0,1,3.1-1.373l.085.044a1.921,1.921,0,0,1,.934,1.511,3.174,3.174,0,0,1-.418,1.908,2.833,2.833,0,0,1-2.327,1.548Q44.956,33.118,44.891,33.114Zm-.383-3.148a2.179,2.179,0,0,0-.3,1.308.963.963,0,0,0,.434.764l.043.022c.542.263,1.351-.173,1.8-.976a2.179,2.179,0,0,0,.3-1.305.968.968,0,0,0-.43-.764.871.871,0,0,0-.321-.084l-.069,0A1.842,1.842,0,0,0,44.508,29.965ZM40.7,31.113a2,2,0,0,1-.3-.045,1.854,1.854,0,0,1-.415-.147,3.03,3.03,0,0,1-1.247-3.478c.392-1.691,1.778-2.822,3.089-2.516a1.8,1.8,0,0,1,.412.145,3.029,3.029,0,0,1,1.248,3.475,3.043,3.043,0,0,1-2.656,2.57C40.786,31.118,40.742,31.116,40.7,31.113Zm-1-3.446a2.125,2.125,0,0,0,.727,2.371.832.832,0,0,0,.194.068c.781.182,1.639-.618,1.909-1.782a2.1,2.1,0,0,0-.724-2.365,1.159,1.159,0,0,0-.2-.075.969.969,0,0,0-.152-.023l-.07,0C40.666,25.859,39.94,26.613,39.7,27.667Zm-5.856,2.9c-.045,0-.091-.007-.137-.013a3.15,3.15,0,0,1-1.042-.3c-1.692-.825-2.682-3.094-2.406-5.521.337-2.954,2.433-5.154,4.667-4.9a3.161,3.161,0,0,1,1.04.3c1.69.825,2.679,3.1,2.406,5.522a6.4,6.4,0,0,1-1.567,3.6,3.736,3.736,0,0,1-2.738,1.316Q33.954,30.575,33.842,30.567Zm-2.606-5.722c-.229,2.014.535,3.875,1.858,4.521a2.216,2.216,0,0,0,.72.211,2.692,2.692,0,0,0,2.264-.985,5.364,5.364,0,0,0,1.31-3.047c.23-2.018-.534-3.878-1.856-4.523a2.171,2.171,0,0,0-.721-.211c-.031,0-.064-.007-.1-.009q-.077-.005-.153-.005C32.961,20.794,31.5,22.543,31.235,24.845Zm-.363-10.926a3.682,3.682,0,0,1-1.356-.353,3.216,3.216,0,0,1-.88-.63,3.652,3.652,0,0,1-.888-3.244,6.375,6.375,0,0,1,1.878-3.45c1.741-1.712,4.135-2.331,5.829-1.5a3.252,3.252,0,0,1,.882.631c1.577,1.607,1.131,4.608-.988,6.694a6.167,6.167,0,0,1-4.177,1.866Q31.021,13.929,30.873,13.918Zm-.556-6.976a5.39,5.39,0,0,0-1.6,2.911,2.7,2.7,0,0,0,.617,2.39,2.254,2.254,0,0,0,.61.437c1.325.645,3.259.1,4.708-1.32,1.734-1.7,2.174-4.082.979-5.3a2.277,2.277,0,0,0-.61-.437,2.736,2.736,0,0,0-1.012-.261q-.114-.008-.231-.008A5.166,5.166,0,0,0,30.317,6.943ZM25.253,8.411a2.093,2.093,0,0,1-.773-.2,1.886,1.886,0,0,1-.371-.236c-1.045-.844-1.008-2.632.081-3.983A3.036,3.036,0,0,1,27.7,2.834a1.871,1.871,0,0,1,.372.236,2.2,2.2,0,0,1,.76,1.819,3.651,3.651,0,0,1-.845,2.164,3.432,3.432,0,0,1-2.569,1.364Q25.335,8.416,25.253,8.411Zm-.293-3.8c-.75.929-.853,2.092-.231,2.6.6.492,1.773.116,2.489-.775.75-.93.854-2.093.231-2.6a.968.968,0,0,0-.181-.116,1.127,1.127,0,0,0-.416-.108c-.031,0-.063,0-.094,0A2.482,2.482,0,0,0,24.961,4.61ZM20.9,6.263a1.718,1.718,0,0,1-.545-.13l-.092-.041h0A2.512,2.512,0,0,1,19.436,2.8a3.192,3.192,0,0,1,1.247-1.5,1.922,1.922,0,0,1,1.76-.193l.087.041a2.511,2.511,0,0,1,.826,3.288,3.174,3.174,0,0,1-1.244,1.5,2.1,2.1,0,0,1-1.09.326Q20.96,6.267,20.9,6.263Zm.3-4.118a2.183,2.183,0,0,0-.85,1.039c-.354.851-.2,1.759.344,2.024l.044.017A.96.96,0,0,0,21.6,5.1a2.149,2.149,0,0,0,.848-1.04c.349-.832.192-1.759-.339-2.021a.9.9,0,0,0-.283-.067l-.062,0A1.078,1.078,0,0,0,21.194,2.145ZM12.134,5.59a1.519,1.519,0,0,1-.191-.026,1.491,1.491,0,0,1-.354-.12,2.155,2.155,0,0,1-.951-2.425,2.585,2.585,0,0,1,.765-1.4,1.622,1.622,0,0,1,1.424-.44,1.6,1.6,0,0,1,.345.119,2.185,2.185,0,0,1,.958,2.427,2.573,2.573,0,0,1-.765,1.4,1.678,1.678,0,0,1-1.13.468Q12.185,5.593,12.134,5.59Zm-.07-3.242a1.574,1.574,0,0,0-.459.868c-.13.637.125,1.294.534,1.382a.665.665,0,0,0,.566-.2,1.575,1.575,0,0,0,.46-.867,1.245,1.245,0,0,0-.418-1.344.469.469,0,0,0-.12-.04.346.346,0,0,0-.06-.008h-.034A.711.711,0,0,0,12.064,2.348ZM16.538,5.38a1.8,1.8,0,0,1-.228-.031,1.6,1.6,0,0,1-.417-.141,2.636,2.636,0,0,1-1.137-2.935A3.1,3.1,0,0,1,15.689.564a1.936,1.936,0,0,1,1.694-.53,1.692,1.692,0,0,1,.4.134,2.686,2.686,0,0,1,1.16,2.947,3.023,3.023,0,0,1-1.214,1.931,1.931,1.931,0,0,1-1.066.339Q16.6,5.384,16.538,5.38Zm-.19-4.09a2.19,2.19,0,0,0-.628,1.178,1.72,1.72,0,0,0,.609,1.856.718.718,0,0,0,.175.06.889.889,0,0,0,.67-.159,2.041,2.041,0,0,0,.8-1.3,1.7,1.7,0,0,0-.6-1.86A.906.906,0,0,0,17.186,1,.7.7,0,0,0,17.1.989l-.055,0A1.06,1.06,0,0,0,16.349,1.29Z" transform="translate(0 0)" stroke="#e8e7a3" stroke-width="0.5" fill="url(#a)"/></g></svg>